<?xml version="1.0" standalone="no"?><!DOCTYPE svg PUBLIC "-//W3C//DTD SVG 1.1//EN" "http://www.w3.org/Graphics/SVG/1.1/DTD/svg11.dtd"><svg t="1782830802243" class="icon" viewBox="0 0 1024 1024" version="1.1" xmlns="http://www.w3.org/2000/svg" p-id="1923" xmlns:xlink="http://www.w3.org/1999/xlink" width="200" height="200"><path d="M640.128 200.96a32 32 0 0 1 3.2768 63.8464l-3.2768 0.1536H302.4384a70.4 70.4 0 0 0-70.272 66.0992l-0.128 4.3008v349.184a70.4 70.4 0 0 0 66.0992 70.272l4.3008 0.128h419.1232a70.4 70.4 0 0 0 70.272-66.1248l0.128-4.2752v-140.3904a32 32 0 0 1 63.8464-3.2768l0.1536 3.2768v140.3904a134.4 134.4 0 0 1-128.8448 134.272l-5.5552 0.128H302.4384a134.4 134.4 0 0 1-134.2976-128.8704l-0.1024-5.5296V335.36a134.4 134.4 0 0 1 128.8448-134.2976l5.5552-0.1024h337.664z" fill="#d4237a" p-id="1924"></path><path d="M770.1504 334.4128a32 32 0 0 1 48.6144 41.472l-2.2784 2.6624-211.3536 221.9776a32 32 0 0 1-40.5504 4.8128l-2.8672-2.0992-113.7408-92.9024-116.4544 113.6384a32 32 0 0 1-42.6752 1.792l-2.56-2.3552a32 32 0 0 1-1.792-42.6752l2.3296-2.56 136.9088-133.6064a32 32 0 0 1 39.8336-3.9168l2.7648 2.048 112.896 92.2112 190.9248-200.4992z" fill="#d4237a" p-id="1925"></path><path d="M793.3184 356.48m-57.6 0a57.6 57.6 0 1 0 115.2 0 57.6 57.6 0 1 0-115.2 0Z" fill="#d4237a" p-id="1926"></path></svg>